<svg xmlns="http://www.w3.org/2000/svg" xmlns:xlink="http://www.w3.org/1999/xlink" version="1.1" id="Layer_1" x="0px" y="0px" width="100px" height="100px" viewBox="0 0 100 100" enable-background="new 0 0 100 100" xml:space="preserve">
<path d="M75.887,54.474C72.062,50.078,67.54,51,62.328,46.157c-2.586-2.403-2.34-17.358-2.34-17.358s-0.194-12.967,2.462-15.624  c1.836-1.832,5.06-2.306,6.938-4.15c0.018-0.013,0.03-0.025,0.043-0.042c0.406-0.406,0.735-0.884,0.978-1.451  c0.03-0.06,0.063-0.106,0.084-0.165c0.165-0.432,0.254-0.939,0.301-1.485c0.013-0.14,0.08-0.258,0.08-0.398  c0-0.025-0.013-0.046-0.017-0.072c0.004-0.038,0.017-0.067,0.017-0.105c0-0.093-0.071-0.14-0.08-0.225  C70.577,2.526,68.5,0.5,65.89,0.5H34.672c-2.61,0-4.688,2.026-4.903,4.582c-0.009,0.084-0.081,0.131-0.081,0.225  c0,0.038,0.013,0.067,0.017,0.105c-0.004,0.026-0.017,0.047-0.017,0.072c0,0.14,0.068,0.258,0.081,0.398  c0.046,0.545,0.135,1.053,0.3,1.485c0.021,0.059,0.055,0.105,0.085,0.165c0.241,0.567,0.571,1.045,0.977,1.451  c0.013,0.017,0.025,0.029,0.042,0.042c1.878,1.845,5.102,2.318,6.938,4.15c2.657,2.657,2.462,15.624,2.462,15.624  s0.246,14.955-2.34,17.358C33.022,51,28.5,50.078,24.676,54.474c-2.708,3.114-2.212,8.664-2.212,8.664h25.671v22.621L50.055,99.5  h0.457l1.921-13.741V63.138h25.666C78.099,63.138,78.594,57.588,75.887,54.474z"/>
</svg>